<?xml version="1.0" encoding="UTF-8" standalone="no"?>
<svg
   xmlns:dc="http://purl.org/dc/elements/1.1/"
   xmlns:cc="http://creativecommons.org/ns#"
   xmlns:rdf="http://www.w3.org/1999/02/22-rdf-syntax-ns#"
   xmlns:svg="http://www.w3.org/2000/svg"
   xmlns="http://www.w3.org/2000/svg"
   width="45"
   height="45"
   viewBox="0 0 45 45"
   id="svg5397"
   version="1.1">
  <defs
     id="defs5399" />
  <metadata
     id="metadata5402">
    <rdf:RDF>
      <cc:Work
         rdf:about="">
        <dc:format>image/svg+xml</dc:format>
        <dc:type
           rdf:resource="http://purl.org/dc/dcmitype/StillImage" />
        <dc:title></dc:title>
      </cc:Work>
    </rdf:RDF>
  </metadata>
  <g
     id="layer1"
     transform="matrix(0.8,0,0,0.8,159.64286,-229.67548)">
    <g
       transform="matrix(1.25,0,0,-1.25,-590.97407,477.26035)"
       id="g4787">
      <g
         transform="translate(335.6364,107.1328)"
         id="g450">
        <path
           id="path452"
           style="fill:#ff5000;fill-opacity:1;fill-rule:nonzero;stroke:none"
           d="M 0,0 C 12.426,0 22.5,10.074 22.5,22.5 22.5,34.926 12.426,45 0,45 -12.426,45 -22.5,34.926 -22.5,22.5 -22.5,10.074 -12.426,0 0,0" />
      </g>
      <g
         transform="translate(332.5971,115.0859)"
         id="g454">
        <path
           id="path456"
           style="fill:#ffffff;fill-opacity:1;fill-rule:nonzero;stroke:none"
           d="m 0,0 0,13.081 -4.395,0 0,5.098 4.395,0 0,3.759 c 0,4.363 2.66,6.739 6.546,6.739 1.861,0 3.461,-0.139 3.927,-0.201 l 0,-4.559 -2.695,-0.002 c -2.113,0 -2.522,-1.006 -2.522,-2.482 l 0,-3.254 5.04,0 -0.656,-5.098 -4.384,0 0,-13.081" />
      </g>
    </g>
  </g>
</svg>
