<?xml version="1.0" encoding="UTF-8" standalone="no"?>
<svg
   xmlns:dc="http://purl.org/dc/elements/1.1/"
   xmlns:cc="http://creativecommons.org/ns#"
   xmlns:rdf="http://www.w3.org/1999/02/22-rdf-syntax-ns#"
   xmlns:svg="http://www.w3.org/2000/svg"
   xmlns="http://www.w3.org/2000/svg"
   width="45"
   height="45"
   viewBox="0 0 45 45"
   id="svg5973"
   version="1.1">
  <defs
     id="defs5975" />
  <metadata
     id="metadata5978">
    <rdf:RDF>
      <cc:Work
         rdf:about="">
        <dc:format>image/svg+xml</dc:format>
        <dc:type
           rdf:resource="http://purl.org/dc/dcmitype/StillImage" />
        <dc:title></dc:title>
      </cc:Work>
    </rdf:RDF>
  </metadata>
  <g
     id="layer1"
     transform="matrix(0.8,0,0,0.8,-121.5,211.46738)">
    <g
       transform="matrix(1.25,0,0,-1.25,-323.46587,-74.168224)"
       id="g4793">
      <g
         transform="translate(402.7727,107.1328)"
         id="g458">
        <path
           id="path460"
           style="fill:#ff5000;fill-opacity:1;fill-rule:nonzero;stroke:none"
           d="M 0,0 C 12.426,0 22.5,10.074 22.5,22.5 22.5,34.926 12.426,45 0,45 -12.426,45 -22.5,34.926 -22.5,22.5 -22.5,10.074 -12.426,0 0,0" />
      </g>
      <path
         id="path462"
         style="fill:#ffffff;fill-opacity:1;fill-rule:nonzero;stroke:none"
         d="m 391.201,133.647 4.96,0 0,-15.959 -4.96,0 0,15.959 z m 2.482,7.933 c 1.585,0 2.874,-1.289 2.874,-2.875 0,-1.588 -1.289,-2.877 -2.874,-2.877 -1.59,0 -2.877,1.289 -2.877,2.877 0,1.586 1.287,2.875 2.877,2.875" />
      <g
         transform="translate(399.2725,133.6466)"
         id="g464">
        <path
           id="path466"
           style="fill:#ffffff;fill-opacity:1;fill-rule:nonzero;stroke:none"
           d="m 0,0 4.758,0 0,-2.18 0.066,0 c 0.662,1.254 2.28,2.577 4.693,2.577 5.022,0 5.95,-3.305 5.95,-7.602 l 0,-8.754 -4.957,0 0,7.761 c 0,1.851 -0.034,4.232 -2.577,4.232 -2.581,0 -2.977,-2.016 -2.977,-4.098 l 0,-7.895 -4.956,0 L 0,0 Z" />
      </g>
    </g>
  </g>
</svg>
