<?xml version="1.0" encoding="UTF-8" standalone="no"?>
<svg
   xmlns:dc="http://purl.org/dc/elements/1.1/"
   xmlns:cc="http://creativecommons.org/ns#"
   xmlns:rdf="http://www.w3.org/1999/02/22-rdf-syntax-ns#"
   xmlns:svg="http://www.w3.org/2000/svg"
   xmlns="http://www.w3.org/2000/svg"
   width="45"
   height="45"
   viewBox="0 0 45 45"
   id="svg4822"
   version="1.1">
  <defs
     id="defs4824" />
  <metadata
     id="metadata4827">
    <rdf:RDF>
      <cc:Work
         rdf:about="">
        <dc:format>image/svg+xml</dc:format>
        <dc:type
           rdf:resource="http://purl.org/dc/dcmitype/StillImage" />
        <dc:title></dc:title>
      </cc:Work>
    </rdf:RDF>
  </metadata>
  <g
     id="layer1"
     transform="matrix(0.8,0,0,0.8,401.92857,-195.38976)">
    <g
       transform="matrix(1.25,0,0,-1.25,-809.91071,434.4032)"
       id="g4781">
      <g
         transform="translate(268.5,107.1328)"
         id="g468">
        <path
           id="path470"
           style="fill:#ff5000;fill-opacity:1;fill-rule:nonzero;stroke:none"
           d="M 0,0 C 12.426,0 22.5,10.074 22.5,22.5 22.5,34.926 12.426,45 0,45 -12.426,45 -22.5,34.926 -22.5,22.5 -22.5,10.074 -12.426,0 0,0" />
      </g>
      <g
         transform="translate(282.2237,137.9367)"
         id="g472">
        <path
           id="path474"
           style="fill:#ffffff;fill-opacity:1;fill-rule:nonzero;stroke:none"
           d="m 0,0 c -1.01,-0.448 -2.095,-0.751 -3.234,-0.887 1.162,0.697 2.055,1.801 2.476,3.116 -1.088,-0.646 -2.293,-1.114 -3.576,-1.367 -1.027,1.095 -2.491,1.779 -4.11,1.779 -3.11,0 -5.632,-2.522 -5.632,-5.632 0,-0.441 0.05,-0.871 0.146,-1.283 -4.68,0.235 -8.829,2.477 -11.607,5.884 -0.484,-0.832 -0.762,-1.799 -0.762,-2.831 0,-1.954 0.994,-3.677 2.505,-4.687 -0.923,0.029 -1.791,0.282 -2.55,0.704 -10e-4,-0.023 -10e-4,-0.047 -10e-4,-0.071 0,-2.728 1.941,-5.004 4.517,-5.521 -0.472,-0.129 -0.97,-0.198 -1.483,-0.198 -0.363,0 -0.716,0.035 -1.06,0.101 0.717,-2.237 2.796,-3.865 5.261,-3.911 -1.928,-1.51 -4.356,-2.41 -6.994,-2.41 -0.455,0 -0.903,0.027 -1.343,0.079 2.492,-1.598 5.452,-2.53 8.632,-2.53 10.358,0 16.021,8.58 16.021,16.022 0,0.244 -0.005,0.487 -0.016,0.728 1.1,0.794 2.055,1.786 2.81,2.915" />
      </g>
    </g>
  </g>
</svg>
