<?xml version="1.0" encoding="UTF-8" standalone="no"?>
<svg
   xmlns:dc="http://purl.org/dc/elements/1.1/"
   xmlns:cc="http://creativecommons.org/ns#"
   xmlns:rdf="http://www.w3.org/1999/02/22-rdf-syntax-ns#"
   xmlns:svg="http://www.w3.org/2000/svg"
   xmlns="http://www.w3.org/2000/svg"
   width="45"
   height="45"
   viewBox="0 0 45 45"
   id="svg6555"
   version="1.1">
  <defs
     id="defs6557">
    <clipPath
       clipPathUnits="userSpaceOnUse"
       id="clipPath492">
      <path
         d="m 469.903,138.888 c 0,0 -5.65,0 -9.416,-0.272 l 0,0 c -0.526,-0.063 -1.672,-0.068 -2.698,-1.14 l 0,0 c -0.806,-0.817 -1.068,-2.671 -1.068,-2.671 l 0,0 c 0,0 -0.202,-1.629 -0.256,-3.477 l 0,0 0,-3.799 c 0.054,-1.849 0.256,-3.478 0.256,-3.478 l 0,0 c 0,0 0.262,-1.854 1.068,-2.671 l 0,0 c 1.026,-1.072 2.37,-1.038 2.969,-1.151 l 0,0 c 2.153,-0.206 9.15,-0.27 9.15,-0.27 l 0,0 c 0,0 5.656,0.008 9.422,0.28 l 0,0 c 0.526,0.064 1.673,0.069 2.696,1.141 l 0,0 c 0.807,0.817 1.071,2.671 1.071,2.671 l 0,0 c 0,0 0.269,2.179 0.269,4.357 l 0,0 0,2.041 c 0,2.178 -0.269,4.356 -0.269,4.356 l 0,0 c 0,0 -0.264,1.854 -1.071,2.671 l 0,0 c -1.023,1.072 -2.17,1.077 -2.696,1.14 l 0,0 c -3.766,0.272 -9.416,0.272 -9.416,0.272 l 0,0 -0.011,0 z m -2.775,-5.393 7.273,-3.794 -7.271,-3.768 -0.002,7.562 z"
         id="path494" />
    </clipPath>
  </defs>
  <metadata
     id="metadata6560">
    <rdf:RDF>
      <cc:Work
         rdf:about="">
        <dc:format>image/svg+xml</dc:format>
        <dc:type
           rdf:resource="http://purl.org/dc/dcmitype/StillImage" />
        <dc:title></dc:title>
      </cc:Work>
    </rdf:RDF>
  </metadata>
  <g
     id="layer1"
     transform="matrix(0.8,0,0,0.8,127.64286,-83.38976)">
    <g
       transform="matrix(1.25,0,0,-1.25,-718.81482,294.4032)"
       id="g4800">
      <g
         transform="translate(469.909,107.1328)"
         id="g476">
        <path
           id="path478"
           style="fill:#ff5000;fill-opacity:1;fill-rule:nonzero;stroke:none"
           d="M 0,0 C 12.426,0 22.5,10.074 22.5,22.5 22.5,34.926 12.426,45 0,45 -12.426,45 -22.5,34.926 -22.5,22.5 -22.5,10.074 -12.426,0 0,0" />
      </g>
      <g
         id="g488">
        <g
           clip-path="url(#clipPath492)"
           id="g490">
          <path
             id="path496"
             style="fill:#ffffff;fill-opacity:1;fill-rule:nonzero;stroke:none"
             d="m 456.465,138.904 26.902,0 0,-18.945 -26.902,0 0,18.945 z" />
        </g>
      </g>
      <g
         transform="translate(467.1285,125.9328)"
         id="g498">
        <path
           id="path500"
           style="fill:#ff5000;fill-opacity:1;fill-rule:nonzero;stroke:none"
           d="M 0,0 7.272,3.768 0,7.562 0,0 Z" />
      </g>
    </g>
  </g>
</svg>
